<svg xmlns="http://www.w3.org/2000/svg" viewBox="0 0 900 280" width="900" height="280">
  <defs>
    <!-- Official Docker logo — gilbarbara/logos, viewBox 0 0 256 185 -->
    <symbol id="docker-mark" viewBox="0 0 256 185">
      <path fill="#2396ED" d="M250.715745,70.4971666 C244.951102,66.4973277 231.740464,64.997388 221.412146,66.9973071 C220.211179,56.9977092 214.68673,48.2480609 205.078993,40.4983724 L199.554544,36.4985331 L195.711449,42.248302 C190.90758,49.7480006 188.505646,60.2475786 189.226226,70.2471769 C189.46642,73.7470364 190.667387,79.9967847 194.270289,85.496564 C190.90758,87.4964838 183.941971,89.996383 174.814621,89.996383 L1.15476998,89.996383 L0.674383104,91.9963028 C-1.00697093,101.9959 -1.00697093,133.244645 18.6888904,157.243681 C33.5808831,175.492947 55.6786788,184.742575 84.7420842,184.742575 C147.672763,184.742575 194.270289,154.493791 216.127891,99.7459909 C224.774854,99.9959813 243.269748,99.7459909 252.637292,80.996745 C252.877486,80.4967649 253.357872,79.4968046 255.039227,75.7469554 L256,73.7470364 L250.715745,70.4971666 L250.715745,70.4971666 Z M139.986573,0 L113.565295,0 L113.565295,24.9989952 L139.986573,24.9989952 L139.986573,0 L139.986573,0 Z M139.986573,29.9987943 L113.565295,29.9987943 L113.565295,54.9977896 L139.986573,54.9977896 L139.986573,29.9987943 L139.986573,29.9987943 Z M108.761427,29.9987943 L82.3401495,29.9987943 L82.3401495,54.9977896 L108.761427,54.9977896 L108.761427,29.9987943 L108.761427,29.9987943 Z M77.5362814,29.9987943 L51.1150037,29.9987943 L51.1150037,54.9977896 L77.5362814,54.9977896 L77.5362814,29.9987943 L77.5362814,29.9987943 Z M46.311135,59.9975886 L19.8898576,59.9975886 L19.8898576,84.9965839 L46.311135,84.9965839 L46.311135,59.9975886 L46.311135,59.9975886 Z M77.5362814,59.9975886 L51.1150037,59.9975886 L51.1150037,84.9965839 L77.5362814,84.9965839 L77.5362814,59.9975886 L77.5362814,59.9975886 Z M108.761427,59.9975886 L82.3401495,59.9975886 L82.3401495,84.9965839 L108.761427,84.9965839 L108.761427,59.9975886 L108.761427,59.9975886 Z M139.986573,59.9975886 L113.565295,59.9975886 L113.565295,84.9965839 L139.986573,84.9965839 L139.986573,59.9975886 L139.986573,59.9975886 Z M171.211719,59.9975886 L144.790441,59.9975886 L144.790441,84.9965839 L171.211719,84.9965839 L171.211719,59.9975886 L171.211719,59.9975886 Z"/>
    </symbol>
    <linearGradient id="bggrad" x1="0" y1="0" x2="1" y2="0">
      <stop offset="0%" stop-color="#0a1628"/>
      <stop offset="38%" stop-color="#0d1117"/>
      <stop offset="100%" stop-color="#0d1117"/>
    </linearGradient>
  </defs>

  <!-- Background -->
  <rect width="900" height="280" fill="url(#bggrad)" rx="14"/>
  <!-- Top accent bar (Docker blue) -->
  <rect x="0" y="0" width="900" height="4" rx="2" fill="#2396ED"/>
  <!-- Subtle left panel divider -->
  <line x1="300" y1="20" x2="300" y2="260" stroke="#1d3354" stroke-width="1"/>

  <!-- ── Left panel: Docker logo ─────────────────────────── -->
  <!-- Blue tinted glow circle behind Docker logo -->
  <circle cx="150" cy="130" r="100" fill="#2396ED" fill-opacity="0.07"/>
  <!-- Official Docker whale logo — 256:185 ratio → 190×137 px -->
  <use href="#docker-mark" x="55" y="62" width="190" height="137"/>
  <text x="150" y="222" text-anchor="middle" font-family="'Segoe UI',sans-serif" font-size="14" font-weight="700" fill="#2396ED" letter-spacing="3">DOCKER</text>

  <!-- ── Right panel: text ─────────────────────────────────── -->
  <text x="328" y="68" font-family="'Segoe UI',sans-serif" font-size="32" font-weight="800" fill="#e6edf3">Docker Lab Session</text>
  <text x="328" y="96" font-family="'Segoe UI',sans-serif" font-size="14" fill="#8b949e">Containers · Images · Volumes · Compose · CI/CD</text>

  <!-- Terminal block -->
  <rect x="328" y="112" width="530" height="96" rx="8" fill="#0d1117" stroke="#1d3354" stroke-width="1"/>
  <rect x="328" y="112" width="530" height="22" rx="8" fill="#1d3354" fill-opacity="0.7"/>
  <rect x="328" y="124" width="530" height="10" fill="#1d3354" fill-opacity="0.7"/>
  <circle cx="345" cy="123" r="5" fill="#f85149"/>
  <circle cx="361" cy="123" r="5" fill="#d29922"/>
  <circle cx="377" cy="123" r="5" fill="#3fb950"/>
  <text x="430" y="127" text-anchor="middle" font-family="monospace" font-size="10" fill="#2396ED">terminal</text>
  <text x="340" y="151" font-family="monospace" font-size="11" fill="#6e7681">$</text>
  <text x="354" y="151" font-family="monospace" font-size="11" fill="#2396ED">docker</text>
  <text x="401" y="151" font-family="monospace" font-size="11" fill="#e6edf3">build -t myapp:latest .</text>
  <text x="340" y="169" font-family="monospace" font-size="11" fill="#6e7681">$</text>
  <text x="354" y="169" font-family="monospace" font-size="11" fill="#2396ED">docker</text>
  <text x="401" y="169" font-family="monospace" font-size="11" fill="#e6edf3">run -p 8080:80 myapp:latest</text>
  <text x="340" y="187" font-family="monospace" font-size="11" fill="#6e7681">$</text>
  <text x="354" y="187" font-family="monospace" font-size="11" fill="#2396ED">docker compose</text>
  <text x="460" y="187" font-family="monospace" font-size="11" fill="#e6edf3">up -d --build</text>

  <!-- Level pills -->
  <rect x="328" y="224" width="90" height="26" rx="13" fill="#238636" fill-opacity="0.25" stroke="#238636" stroke-width="1"/>
  <text x="373" y="241" text-anchor="middle" font-family="'Segoe UI',sans-serif" font-size="11" font-weight="600" fill="#3fb950">Beginner</text>
  <rect x="428" y="224" width="105" height="26" rx="13" fill="#9a6700" fill-opacity="0.25" stroke="#9a6700" stroke-width="1"/>
  <text x="480" y="241" text-anchor="middle" font-family="'Segoe UI',sans-serif" font-size="11" font-weight="600" fill="#d29922">Intermediate</text>
  <rect x="543" y="224" width="60" height="26" rx="13" fill="#b91c1c" fill-opacity="0.25" stroke="#b91c1c" stroke-width="1"/>
  <text x="573" y="241" text-anchor="middle" font-family="'Segoe UI',sans-serif" font-size="11" font-weight="600" fill="#f85149">Pro</text>

  <!-- Stats -->
  <text x="640" y="237" font-family="'Segoe UI',sans-serif" font-size="12" fill="#6e7681">14 Labs  ·  5 Sample Apps  ·  100% Free</text>
</svg>
